<svg xmlns="http://www.w3.org/2000/svg" viewBox="0 0 960 420" role="img" aria-labelledby="t d">
<title id="t">コンベヤ点検時の安全措置</title><desc id="d">主電源遮断、施錠表示、残圧ゼロ確認、回転部ガードを示す技術図</desc>
<defs><marker id="a" markerWidth="8" markerHeight="8" refX="7" refY="4" orient="auto"><path d="M0 0L8 4 0 8z" fill="#d94841"/></marker><pattern id="h" width="10" height="10" patternUnits="userSpaceOnUse" patternTransform="rotate(45)"><rect width="5" height="10" fill="#f3c94f"/></pattern></defs>
<rect width="960" height="420" rx="22" fill="#f7f9fb"/><text x="38" y="42" font-family="sans-serif" font-size="24" font-weight="800" fill="#26323d">停止設備へ入る前の安全確認</text>
<g stroke="#26323d" stroke-width="5" fill="none"><rect x="70" y="222" width="570" height="92" rx="10" fill="#dfe6eb"/><circle cx="170" cy="268" r="37" fill="#fff"/><circle cx="540" cy="268" r="37" fill="#fff"/><path d="M170 230H540M170 306H540"/><rect x="264" y="153" width="180" height="74" rx="8" fill="url(#h)"/><path d="M285 222v-62h138v62"/></g>
<g font-family="sans-serif" fill="#26323d"><text x="318" y="198" font-size="19" font-weight="800">回転部ガード</text><text x="280" y="350" font-size="18">搬送コンベヤ</text></g>
<g transform="translate(700 76)"><rect width="190" height="238" rx="12" fill="#fff" stroke="#26323d" stroke-width="5"/><text x="95" y="35" text-anchor="middle" font-family="sans-serif" font-size="18" font-weight="800">主電源</text><circle cx="95" cy="91" r="34" fill="#d94841" stroke="#26323d" stroke-width="5"/><path d="M95 70v42" stroke="#fff" stroke-width="7"/><rect x="62" y="139" width="66" height="58" rx="8" fill="#f3c94f" stroke="#26323d" stroke-width="4"/><path d="M77 139v-19a18 18 0 0136 0v19" fill="none" stroke="#26323d" stroke-width="5"/><rect x="37" y="190" width="116" height="55" rx="5" fill="#fff" stroke="#d94841" stroke-width="4"/><text x="95" y="216" text-anchor="middle" font-family="sans-serif" font-size="16" font-weight="900" fill="#d94841">操作禁止</text><text x="95" y="235" text-anchor="middle" font-family="sans-serif" font-size="12" fill="#26323d">点検中</text></g>
<g stroke="#d94841" stroke-width="4" fill="none" marker-end="url(#a)"><path d="M679 175C620 162 536 170 454 180"/><path d="M688 267C650 315 595 335 535 340"/></g><g font-family="sans-serif" font-size="16" font-weight="800" fill="#d94841"><text x="505" y="147">① 遮断・施錠・表示</text><text x="614" y="365">② 残圧・惰性回転ゼロ</text></g>
</svg>
